HIERARCHY
ROOT Hips
{
	OFFSET 0.00000 0.00000 0.00000
	CHANNELS 6 Xposition Yposition Zposition Zrotation Yrotation Xrotation 
	JOINT LHipJoint
	{
		OFFSET 0 0 0
		CHANNELS 3 Zrotation Yrotation Xrotation
		JOINT LeftUpLeg
		{
			OFFSET 1.58895 -1.83665 0.71753
			CHANNELS 3 Zrotation Yrotation Xrotation
			JOINT LeftLeg
			{
				OFFSET 2.50528 -6.88321 0.00000
				CHANNELS 3 Zrotation Yrotation Xrotation
				JOINT LeftFoot
				{
					OFFSET 2.63244 -7.23257 0.00000
					CHANNELS 3 Zrotation Yrotation Xrotation
					JOINT LeftToeBase
					{
						OFFSET 0.23691 -0.65090 1.72750
						CHANNELS 3 Zrotation Yrotation Xrotation
						End Site
						{
							OFFSET 0.00000 -0.00000 0.92561
						}
					}
				}
			}
		}
	}
	JOINT RHipJoint
	{
		OFFSET 0 0 0
		CHANNELS 3 Zrotation Yrotation Xrotation
		JOINT RightUpLeg
		{
			OFFSET -1.51435 -1.83665 0.71753
			CHANNELS 3 Zrotation Yrotation Xrotation
			JOINT RightLeg
			{
				OFFSET -2.54551 -6.99375 0.00000
				CHANNELS 3 Zrotation Yrotation Xrotation
				JOINT RightFoot
				{
					OFFSET -2.66027 -7.30903 0.00000
					CHANNELS 3 Zrotation Yrotation Xrotation
					JOINT RightToeBase
					{
						OFFSET -0.22981 -0.63138 2.03959
						CHANNELS 3 Zrotation Yrotation Xrotation
						End Site
						{
							OFFSET -0.00000 -0.00000 1.07060
						}
					}
				}
			}
		}
	}
	JOINT LowerBack
	{
		OFFSET 0 0 0
		CHANNELS 3 Zrotation Yrotation Xrotation
		JOINT Spine
		{
			OFFSET -0.02651 1.86275 -0.11152
			CHANNELS 3 Zrotation Yrotation Xrotation
			JOINT Spine1
			{
				OFFSET 0.01019 1.86224 0.04087
				CHANNELS 3 Zrotation Yrotation Xrotation
				JOINT Neck
				{
					OFFSET 0 0 0
					CHANNELS 3 Zrotation Yrotation Xrotation
					JOINT Neck1
					{
						OFFSET -0.01926 1.80512 0.08867
						CHANNELS 3 Zrotation Yrotation Xrotation
						JOINT Head
						{
							OFFSET 0.05516 1.76451 -0.38475
							CHANNELS 3 Zrotation Yrotation Xrotation
							End Site
							{
								OFFSET 0.01592 1.82587 -0.14001
							}
						}
					}
				}
				JOINT LeftShoulder
				{
					OFFSET 0 0 0
					CHANNELS 3 Zrotation Yrotation Xrotation
					JOINT LeftArm
					{
						OFFSET 3.47116 1.51376 0.14491
						CHANNELS 3 Zrotation Yrotation Xrotation
						JOINT LeftForeArm
						{
							OFFSET 4.78095 -0.00000 0.00000
							CHANNELS 3 Zrotation Yrotation Xrotation
							JOINT LeftHand
							{
								OFFSET 3.58615 -0.00000 -0.00000
								CHANNELS 3 Zrotation Yrotation Xrotation
								JOINT LeftFingerBase
								{
									OFFSET 0 0 0
									CHANNELS 3 Zrotation Yrotation Xrotation
									JOINT LeftHandIndex1
									{
										OFFSET 0.65981 -0.00000 0.00000
										CHANNELS 3 Zrotation Yrotation Xrotation
										End Site
										{
											OFFSET 0.53196 -0.00000 0.00000
										}
									}
								}
								JOINT LThumb
								{
									OFFSET 0 0 0
									CHANNELS 3 Zrotation Yrotation Xrotation
									End Site
									{
										OFFSET 0.54008 -0.00000 0.54008
									}
								}
							}
						}
					}
				}
				JOINT RightShoulder
				{
					OFFSET 0 0 0
					CHANNELS 3 Zrotation Yrotation Xrotation
					JOINT RightArm
					{
						OFFSET -3.31725 1.61216 0.35156
						CHANNELS 3 Zrotation Yrotation Xrotation
						JOINT RightForeArm
						{
							OFFSET -4.48913 -0.00000 0.00000
							CHANNELS 3 Zrotation Yrotation Xrotation
							JOINT RightHand
							{
								OFFSET -3.70510 -0.00000 0.00000
								CHANNELS 3 Zrotation Yrotation Xrotation
								JOINT RightFingerBase
								{
									OFFSET 0 0 0
									CHANNELS 3 Zrotation Yrotation Xrotation
									JOINT RightHandIndex1
									{
										OFFSET -0.44914 -0.00000 0.00000
										CHANNELS 3 Zrotation Yrotation Xrotation
										End Site
										{
											OFFSET -0.36211 -0.00000 0.00000
										}
									}
								}
								JOINT RThumb
								{
									OFFSET 0 0 0
									CHANNELS 3 Zrotation Yrotation Xrotation
									End Site
									{
										OFFSET -0.36763 -0.00000 0.36763
									}
								}
							}
						}
					}
				}
			}
		}
	}
}
MOTION
Frames: 10
Frame Time: .0083333
-0.9202 18.6969 5.4317 -2.8336 -2.0989 2.0294 0.0000 0.0000 0.0000 -9.9507 -3.6905 -6.9000 1.5979 7.9728 22.6314 1.2569 3.3516 -22.6244 8.7270 -16.6288 -55.1410 0.0000 0.0000 0.0000 17.4668 0.0532 5.3102 0.0000 0.0000 -0.0000 -0.5921 -4.8576 -17.1170 -0.1736 2.6840 -7.4001 1.7621 0.1460 12.6680 0.9670 0.4545 3.4028 -0.0558 0.2149 -3.5243 -3.8115 1.3851 -2.4858 4.4190 1.4717 18.2852 2.1170 0.7673 5.8518 0.0000 0.0000 0.0000 -40.7629 -19.9930 38.7383 150.6839 -40.2999 -109.0354 -0.0000 0.0000 -63.5377 26.3205 -21.3237 -10.1974 -7.1250 0.0000 -0.0000 -1.4908 6.4528 1.3142 0.0000 0.0000 0.0000 85.3153 -22.7487 17.0923 -37.7972 46.7093 -16.8178 0.0000 0.0000 7.9559 3.1017 -40.8603 -2.0303 7.1250 -0.0000 -0.0000 49.1172 -64.1066 -25.6265
-0.9351 18.6990 5.4271 -2.9012 -2.0768 2.0522 0.0000 0.0000 0.0000 -9.8215 -3.7450 -6.9330 1.5987 7.9748 22.6374 1.2542 3.3527 -22.6021 8.6930 -16.6060 -55.0221 0.0000 0.0000 0.0000 17.5970 0.0462 5.2662 0.0000 -0.0000 0.0000 -0.5866 -4.9001 -17.0836 -0.1866 2.7818 -7.6718 1.7667 0.1405 12.7236 0.9704 0.4493 3.4057 -0.0542 0.2121 -3.5516 -3.9020 1.2586 -2.5754 4.5628 1.2777 18.6437 2.1736 0.6775 5.9861 0.0000 0.0000 0.0000 -41.0131 -19.6739 38.6941 150.1891 -40.7308 -108.7140 -0.0000 0.0000 -62.8542 25.6427 -21.8395 -10.1250 -7.1250 0.0000 -0.0000 -1.9778 6.0240 1.7604 0.0000 0.0000 0.0000 85.2333 -22.7016 17.0893 -37.8426 46.7385 -16.8509 0.0000 0.0000 7.9515 3.2191 -41.0413 -2.1150 7.1250 -0.0000 -0.0000 49.5002 -64.1943 -25.9724
-0.9499 18.7003 5.4223 -2.9434 -2.0413 2.0562 0.0000 0.0000 0.0000 -9.7261 -3.8254 -6.9565 1.6032 7.9854 22.6698 1.2551 3.4151 -22.6417 8.6983 -16.6096 -55.0406 0.0000 0.0000 0.0000 17.6976 0.0147 5.2501 0.0000 0.0000 -0.0000 -0.5880 -4.8922 -17.0939 -0.1941 2.8370 -7.8252 1.7556 0.1269 12.8113 0.9623 0.4314 3.4262 -0.0539 0.2032 -3.5783 -4.5571 1.1263 -3.0879 5.4186 1.0042 19.5347 2.5617 0.5667 6.3557 -0.0000 0.0000 0.0000 -41.2566 -19.3143 38.6158 149.7662 -41.0930 -108.4370 -0.0000 0.0000 -62.3108 25.2754 -22.3239 -10.1680 -7.1250 0.0000 -0.0000 -2.2645 5.5737 2.0355 -0.0000 0.0000 0.0000 85.1344 -22.6138 17.1606 -37.8743 46.7588 -16.8739 0.0000 0.0000 7.8960 3.2614 -41.2521 -2.1518 7.1250 -0.0000 -0.0000 49.8629 -64.3219 -26.3518
-0.9657 18.7009 5.4172 -2.9882 -1.9985 2.0948 0.0000 0.0000 0.0000 -9.6235 -3.8624 -7.0450 1.6085 7.9980 22.7080 1.2471 3.5114 -22.6247 8.7565 -16.6484 -55.2441 0.0000 0.0000 0.0000 17.8059 -0.0113 5.1938 0.0000 0.0000 -0.0000 -0.5885 -4.8677 -17.0823 -0.1853 2.7728 -7.6468 1.7530 0.1149 12.8949 0.9643 0.4172 3.4372 -0.0485 0.1960 -3.6127 -4.7798 1.0164 -3.4246 5.7366 0.8149 20.0855 2.7040 0.4871 6.5960 0.0000 -0.0000 0.0000 -41.4993 -18.9537 38.4912 149.4356 -41.3723 -108.2191 -0.0000 0.0000 -61.9360 25.1834 -22.4769 -10.1910 -7.1250 0.0000 -0.0000 -2.3398 5.4273 2.1098 0.0000 -0.0000 0.0000 85.0321 -22.5199 17.1949 -37.8902 46.7691 -16.8856 0.0000 0.0000 7.9112 3.1458 -41.1950 -2.0731 7.1250 -0.0000 -0.0000 49.6696 -64.3168 -26.2194
-0.9815 18.7012 5.4116 -3.0219 -1.9663 2.1510 0.0000 0.0000 0.0000 -9.5361 -3.9250 -7.1430 1.6142 8.0114 22.7488 1.2377 3.5872 -22.5855 8.7906 -16.6711 -55.3631 0.0000 0.0000 0.0000 17.9021 -0.0174 5.1115 0.0000 -0.0000 0.0000 -0.5869 -4.8637 -17.0611 -0.1729 2.6785 -7.3850 1.6839 0.0774 12.9459 0.9500 0.3596 3.4335 -0.0154 0.1676 -3.6455 -4.5870 0.9526 -3.5634 5.6067 0.7251 20.4414 2.6315 0.4489 6.7422 -0.0000 0.0000 0.0000 -41.6604 -18.5318 38.2776 149.0868 -41.6634 -107.9879 -0.0000 0.0000 -61.4622 25.0478 -22.4224 -10.1069 -7.1250 0.0000 -0.0000 -2.4181 5.5109 2.1767 -0.0000 0.0000 0.0000 84.9437 -22.4259 17.2809 -37.8730 46.7580 -16.8730 0.0000 0.0000 8.0114 3.1389 -40.9570 -2.0587 7.1250 -0.0000 -0.0000 49.2983 -64.1608 -25.8038
-0.9952 18.7022 5.4059 -3.0436 -1.9473 2.1929 0.0000 0.0000 0.0000 -9.4854 -4.1269 -7.1608 1.6197 8.0244 22.7883 1.2392 3.7294 -22.6720 8.7806 -16.6644 -55.3281 0.0000 0.0000 0.0000 17.9733 -0.0140 5.0425 0.0000 -0.0000 0.0000 -0.5885 -4.8526 -17.0722 -0.1641 2.6103 -7.1955 1.5714 -0.0055 12.9784 0.9035 0.2344 3.4206 0.0192 0.1061 -3.6785 -4.0662 0.9263 -3.5397 5.1744 0.7030 20.7622 2.4068 0.4416 6.8498 -0.0000 -0.0000 0.0000 -41.7484 -17.9955 37.9946 148.7585 -41.9341 -107.7691 -0.0000 0.0000 -61.0962 24.8405 -22.5619 -10.0715 -7.1250 0.0000 -0.0000 -2.5636 5.4006 2.3133 -0.0000 -0.0000 0.0000 84.8282 -22.3795 17.5689 -37.8922 46.7703 -16.8870 0.0000 0.0000 8.0911 3.3599 -40.9180 -2.2021 7.1250 -0.0000 -0.0000 49.4405 -64.0728 -25.7985
-1.0070 18.7039 5.4004 -3.0714 -1.9289 2.2079 0.0000 0.0000 0.0000 -9.4368 -4.3223 -7.1395 1.6229 8.0321 22.8116 1.2382 3.9306 -22.7697 8.7947 -16.6738 -55.3774 0.0000 0.0000 0.0000 18.0486 -0.0198 5.0048 0.0000 -0.0000 0.0000 -0.5859 -4.8666 -17.0516 -0.1693 2.6509 -7.3083 1.5284 -0.0571 13.0400 0.8765 0.1608 3.4239 0.0269 0.0698 -3.7096 -3.6694 0.8813 -3.5767 4.8407 0.6530 21.1079 2.2338 0.4206 6.9759 -0.0000 0.0000 0.0000 -41.9235 -17.5366 37.8035 148.4628 -42.1751 -107.5710 -0.0000 0.0000 -60.7746 24.6788 -22.8886 -10.1329 -7.1250 0.0000 -0.0000 -2.7021 5.0829 2.4549 -0.0000 0.0000 0.0000 84.7020 -22.3494 17.7817 -37.9723 46.8216 -16.9454 0.0000 0.0000 8.0748 3.4627 -40.9729 -2.2721 7.1250 -0.0000 -0.0000 49.6177 -64.0805 -25.9222
-1.0184 18.7050 5.3948 -3.0891 -1.8955 2.2177 0.0000 0.0000 0.0000 -9.3802 -4.3682 -7.1687 1.6243 8.0354 22.8215 1.2272 4.0312 -22.7324 8.8320 -16.6984 -55.5072 0.0000 0.0000 0.0000 18.1168 -0.0447 4.9746 0.0000 -0.0000 0.0000 -0.5787 -4.9161 -17.0036 -0.1846 2.7675 -7.6320 1.5177 -0.0662 13.1498 0.8728 0.1500 3.4151 0.0309 0.0641 -3.7787 -3.5878 0.8289 -3.6259 4.8389 0.5639 21.4472 2.2193 0.3845 7.0994 0.0000 -0.0000 0.0000 -42.1664 -17.0930 37.7191 148.2190 -42.3719 -107.4070 -0.0000 0.0000 -60.4597 24.5469 -23.0152 -10.1243 -7.1250 0.0000 -0.0000 -2.7988 4.9730 2.5488 0.0000 -0.0000 0.0000 84.5583 -22.3159 17.8892 -38.0249 46.8552 -16.9837 0.0000 0.0000 7.9567 3.3034 -40.8877 -2.1637 7.1250 -0.0000 -0.0000 49.3432 -64.0685 -25.7305
-1.0291 18.7060 5.3900 -3.0691 -1.8852 2.2399 0.0000 0.0000 0.0000 -9.3624 -4.3877 -7.2127 1.6255 8.0380 22.8296 1.2223 4.0570 -22.7061 8.8331 -16.6991 -55.5113 0.0000 0.0000 0.0000 18.1345 -0.0449 4.9392 0.0000 -0.0000 0.0000 -0.5776 -4.9360 -17.0041 -0.1817 2.7458 -7.5718 1.4641 -0.0649 13.2249 0.8610 0.1455 3.4210 0.0495 0.0620 -3.8137 -3.5528 0.7699 -3.6300 4.8525 0.4687 21.7011 2.2155 0.3428 7.1874 0.0000 -0.0000 0.0000 -42.3963 -16.6911 37.5850 147.9994 -42.5477 -107.2588 -0.0000 0.0000 -60.2512 24.4380 -22.9788 -10.0597 -7.1250 0.0000 -0.0000 -2.8622 5.0318 2.6035 0.0000 -0.0000 0.0000 84.3794 -22.2183 18.0367 -38.0167 46.8500 -16.9778 0.0000 0.0000 7.8456 3.0814 -40.9022 -2.0187 7.1250 -0.0000 -0.0000 49.1623 -64.1403 -25.6929
-1.0389 18.7075 5.3864 -3.0581 -1.8925 2.2879 0.0000 0.0000 0.0000 -9.3380 -4.4275 -7.2708 1.6263 8.0399 22.8352 1.2238 4.0715 -22.7263 8.8147 -16.6870 -55.4472 0.0000 0.0000 0.0000 18.1531 -0.0179 4.8797 0.0000 -0.0000 0.0000 -0.5800 -4.9144 -17.0170 -0.1671 2.6335 -7.2599 1.3940 -0.0640 13.2090 0.8691 0.1367 3.4627 0.0989 0.0584 -3.7617 -3.4640 0.7040 -3.6443 4.7192 0.3900 21.8714 2.1542 0.3012 7.2507 -0.0000 0.0000 0.0000 -42.6453 -16.4072 37.3172 147.7304 -42.7611 -107.0765 -0.0000 0.0000 -60.3119 24.6439 -22.8835 -10.1148 -7.1250 0.0000 -0.0000 -2.7233 5.0949 2.4735 -0.0000 0.0000 0.0000 84.1640 -22.0636 18.1858 -38.0230 46.8540 -16.9824 0.0000 0.0000 7.8510 3.0122 -40.9879 -1.9767 7.1250 -0.0000 -0.0000 49.2295 -64.2169 -25.8212
